<?xml version="1.0" encoding="UTF-8"?>
<svg width="312px" height="312px" viewBox="0 0 312 312" version="1.1" xmlns="http://www.w3.org/2000/svg" xmlns:xlink="http://www.w3.org/1999/xlink">
    <!-- Generator: Sketch 44 (41411) - http://www.bohemiancoding.com/sketch -->
    <title>Shape</title>
    <desc>Created with Sketch.</desc>
    <defs></defs>
    <g id="Page-1" stroke="none" stroke-width="1" fill="none" fill-rule="evenodd">
        <g id="url" fill-rule="nonzero" fill="#000000">
            <path d="M306.244732,114.96963 L237.957606,183.256756 C230.424272,190.79009 218.186075,190.79009 210.628401,183.256756 L196.951628,169.579983 L265.285563,101.292857 L210.638387,46.6456807 L142.35126,114.979615 L128.674487,101.302843 C121.128983,93.7695085 121.128983,81.5313121 128.674487,73.9736376 L196.961614,5.68651114 C204.543629,-1.89550371 216.733144,-1.89550371 224.290819,5.68651114 L306.255342,87.6635166 C313.837357,95.1968508 313.837357,107.398537 306.243153,114.968381 L306.244732,114.96963 Z M169.636153,196.946635 L101.349027,265.28057 L46.6675246,210.586585 L115.026424,142.299459 L101.349651,128.622686 C93.7676362,121.077182 81.5781204,121.077182 74.0204459,128.622686 L5.68651114,196.956621 C-1.89550371,204.489955 -1.89550371,216.691641 5.68651114,224.237145 L87.6978427,306.235995 C95.2433471,313.781499 107.432863,313.781499 115.027048,306.235995 L183.314174,237.90206 C190.847508,230.368726 190.847508,218.17921 183.314174,210.572855 L169.636153,196.946635 Z M101.349027,210.586897 C108.894531,218.168912 121.120558,218.168912 128.678232,210.586897 L210.642755,128.622374 C218.18826,121.07687 218.18826,108.850843 210.642755,101.293169 C203.109421,93.7598348 190.871225,93.7598348 183.31355,101.293169 L101.336545,183.270174 C93.7667,190.803509 93.7667,203.041705 101.348737,210.587209 L101.349027,210.586897 Z" id="Shape"></path>
        </g>
    </g>
</svg>